<svg xmlns="http://www.w3.org/2000/svg" viewBox="0 0 1100 720">
<defs>
<linearGradient id="wall" x1="0" y1="0" x2="1" y2="1"><stop offset="0" stop-color="#fff7ed"/><stop offset="1" stop-color="#e0f2fe"/></linearGradient>
<linearGradient id="paint" x1="0" y1="0" x2="1" y2="1"><stop offset="0" stop-color="#fbbf24"/><stop offset="1" stop-color="#f97316"/></linearGradient>
<filter id="shadow" x="-20%" y="-20%" width="140%" height="140%"><feDropShadow dx="0" dy="18" stdDeviation="22" flood-opacity=".18"/></filter>
</defs>
<rect width="1100" height="720" rx="36" fill="url(#wall)"/>
<path d="M0 525 C180 460 260 580 420 520 C590 455 670 375 850 440 C985 489 1035 440 1100 405 L1100 720 L0 720Z" fill="#111827" opacity=".06"/>
<rect x="105" y="90" width="485" height="360" rx="24" fill="#fff" filter="url(#shadow)"/>
<rect x="150" y="135" width="395" height="62" rx="16" fill="#e5e7eb"/>
<rect x="150" y="225" width="300" height="28" rx="14" fill="#fbbf24"/>
<rect x="150" y="280" width="360" height="22" rx="11" fill="#d1d5db"/>
<rect x="150" y="325" width="260" height="22" rx="11" fill="#d1d5db"/>
<path d="M668 155h265c33 0 60 27 60 60v290c0 33-27 60-60 60H668c-33 0-60-27-60-60V215c0-33 27-60 60-60Z" fill="#fff" filter="url(#shadow)"/>
<path d="M636 492h330" stroke="#f59e0b" stroke-width="28" stroke-linecap="round"/>
<path d="M703 258h160" stroke="#111827" stroke-width="28" stroke-linecap="round"/>
<path d="M703 315h210" stroke="#f59e0b" stroke-width="24" stroke-linecap="round"/>
<path d="M703 375h145" stroke="#93c5fd" stroke-width="24" stroke-linecap="round"/>
<path d="M440 505l183-183" stroke="#111827" stroke-width="18" stroke-linecap="round"/>
<rect x="607" y="286" width="80" height="48" rx="12" transform="rotate(-45 647 310)" fill="#111827"/>
<rect x="654" y="237" width="145" height="52" rx="20" transform="rotate(-45 727 263)" fill="url(#paint)"/>
<circle cx="354" cy="566" r="72" fill="#111827"/>
<path d="M314 626h80v42h-80z" fill="#111827"/>
</svg>